<svg xmlns="http://www.w3.org/2000/svg" viewBox="0 0 55 49.62"><defs><style>.cls-1{fill:none;stroke:#fff;stroke-linecap:round;stroke-linejoin:round;stroke-width:3.5px;}</style></defs><title>Ресурс 1</title><g id="Слой_2" data-name="Слой 2"><g id="Layer_1" data-name="Layer 1"><path fill="#fff" d="M49.33,12a2.19,2.19,0,0,1,2.17,2.17V44a2.19,2.19,0,0,1-2.17,2.17H5.67A2.19,2.19,0,0,1,3.5,44V14.17A2.19,2.19,0,0,1,5.67,12H49.33m0-3.5H5.67A5.68,5.68,0,0,0,0,14.17V44a5.68,5.68,0,0,0,5.67,5.67H49.33A5.68,5.68,0,0,0,55,44V14.17A5.68,5.68,0,0,0,49.33,8.5Z"/><path fill="#fff" d="M17.91,10.8V5.47A2.12,2.12,0,0,1,20,3.38H35a2.12,2.12,0,0,1,2.1,2.09V10.8h3.37V5.47A5.48,5.48,0,0,0,35,0H20a5.48,5.48,0,0,0-5.47,5.47V10.8Z"/><line class="cls-1" x1="8.61" y1="41.16" x2="46.58" y2="41.16"/></g></g></svg>