<svg xmlns="http://www.w3.org/2000/svg" viewBox="0 0 235.01 234.99"><defs><style>.cls-1{fill:#1d8cb5;}.cls-2{fill:#fff;}</style></defs><title>Ресурс 1</title><g id="Слой_2" data-name="Слой 2"><g id="svg2"><g id="layer1"><path id="rect1942" class="cls-1" d="M199.52,0h-164A35.49,35.49,0,0,0,0,35.49v164A35.49,35.49,0,0,0,35.49,235h164A35.49,35.49,0,0,0,235,199.5v-164A35.49,35.49,0,0,0,199.52,0Z"/></g><g id="layer1-2" data-name="layer1"><g id="g3019"><path id="path28" class="cls-2" d="M71.11,197.26V91H35.79V197.26ZM53.45,76.47c12.31,0,20-8.16,20-18.36-.23-10.42-7.68-18.36-19.75-18.36s-20,7.94-20,18.36c0,10.2,7.66,18.36,19.52,18.36Z"/><path id="path30" class="cls-2" d="M90.66,197.26H126V137.91c0-3.18.23-6.35,1.17-8.62,2.54-6.35,8.36-12.92,18.11-12.92,12.79,0,17.9,9.75,17.9,24v56.86h35.32V136.32c0-32.64-17.43-47.83-40.67-47.83-19.05,0-27.42,10.65-32.07,17.9H126V91H90.66c.46,10,0,106.28,0,106.28Z"/></g></g></g></g></svg>