<svg xmlns="http://www.w3.org/2000/svg" xmlns:xlink="http://www.w3.org/1999/xlink" viewBox="0 0 172.89 36.94"><defs><style>.cls-1{fill:none;}.cls-2{fill:#769fc7;}.cls-3{clip-path:url(#clip-path);}.cls-4{fill:#003354;}</style><clipPath id="clip-path"><rect class="cls-1" width="172.89" height="36.94"/></clipPath></defs><title>Ресурс 3</title><g id="Слой_2" data-name="Слой 2"><g id="Слой_1-2" data-name="Слой 1"><polygon class="cls-2" points="22.62 10.81 12.71 32.74 2.76 10.81 0 10.81 11.85 36.56 13.58 36.56 25.33 10.81 22.62 10.81"/><g class="cls-3"><path class="cls-2" d="M28,22.21c.52-5.64,4.38-9.51,9.59-9.51,5.54,0,8.74,4.66,9.2,9.51Zm9.63-12c-7,0-12.29,5.7-12.29,13.35s5.37,13.35,12.77,13.35a12.54,12.54,0,0,0,10.38-5.56l.43-.61-2-1.44-.43.61a10.6,10.6,0,0,1-8.29,4.54c-5.6,0-9.69-4-10.17-9.85H49.4v-.94c0-6.69-4.06-13.45-11.82-13.45"/><path class="cls-2" d="M65.16,10.24a10.59,10.59,0,0,0-9.08,5.42V10.81H53.57V36.36h2.51V23.16c0-4.37,3.4-10.46,8.92-10.46h1V11l-.08-.75Z"/></g><rect class="cls-4" x="90.12" y="1.44" width="2.49" height="3.74"/><rect class="cls-4" x="90.36" y="11.06" width="2.01" height="25.05"/><g class="cls-3"><path class="cls-4" d="M110.15,34.73c-6.1,0-10.52-4.69-10.52-11.24,0-6.4,4.42-11,10.52-11,5.95,0,10.61,4.87,10.61,11.19s-4.66,11.09-10.61,11.09m10.56-18.18a11.87,11.87,0,0,0-10.61-6.06c-7.14,0-12.53,5.61-12.53,13.15s5.39,13,12.53,13a11.86,11.86,0,0,0,10.61-6.07v5.5h2V0h-2Z"/><path class="cls-4" d="M139.54,12.45c5.8,0,9.1,4.95,9.47,10H129.68c.43-5.92,4.43-10,9.86-10m.05-2c-6.87,0-12,5.59-12,13.1s5.27,13.1,12.53,13.1a12.28,12.28,0,0,0,10.17-5.46l.28-.4-1.62-1.15-.29.4a10.84,10.84,0,0,1-8.5,4.65c-5.82,0-10.05-4.23-10.44-10.35h21.48v-.69c0-6.56-4-13.2-11.56-13.2"/><path class="cls-4" d="M163.87,22.34c-4-1.1-7.29-2.24-7.29-5.15,0-2.66,2.87-4.6,6.82-4.6a13.45,13.45,0,0,1,7.5,2.51l.42.3,1.13-1.71-.4-.28a15.72,15.72,0,0,0-8.65-2.78c-5.14,0-8.87,2.78-8.87,6.71,0,4.11,3.64,5.46,8.78,6.92l.23.07c3.75,1.06,7.29,2.07,7.29,5.42,0,2.8-3,4.84-7.1,4.84a14.06,14.06,0,0,1-8.82-3.3l-.4-.34-1.23,1.61.37.31a16.08,16.08,0,0,0,10,3.68c5.34,0,9.21-2.88,9.21-6.95,0-4.44-4.09-5.92-9-7.26"/></g><polygon class="cls-4" points="69.02 1.44 69.02 36.12 71.08 36.12 71.08 20 82 20 82.44 18.04 71.08 18.04 71.08 3.4 85.71 3.4 86.15 1.44 69.02 1.44"/></g></g></svg>