<svg xmlns="http://www.w3.org/2000/svg" viewBox="0 0 48.68 57.84"><defs><style>.cls-1,.cls-2{stroke:#fff;}.cls-1{stroke-miterlimit:10;stroke-width:0.68px;}.cls-2{fill:none;stroke-linecap:round;stroke-linejoin:round;stroke-width:2.8px;}</style></defs><title>Ресурс 1</title><g id="Слой_2" data-name="Слой 2"><g id="Layer_1" data-name="Layer 1"><path fill="#fff" class="cls-1" d="M33.68,37.68A14.61,14.61,0,0,1,28,36.53l1-2.46A12,12,0,1,0,36,11.24l-1-.19-.11-1a7.95,7.95,0,0,0-15.8,0l-.17,1.46-1.43-.3A12,12,0,1,0,15,35a11.81,11.81,0,0,0,4.8-1l1.07,2.45a14.66,14.66,0,1,1-4.18-28,10.6,10.6,0,0,1,20.7.39,14.66,14.66,0,0,1-3.72,28.84Z"/><path class="cls-2" d="M13.82,56.44h4.53a2.51,2.51,0,0,0,2.5-2.5V34.62"/><path class="cls-2" d="M35,56.44H30.52a2.51,2.51,0,0,1-2.5-2.5V34.62"/></g></g></svg>